<svg width="97" height="25" viewBox="0 0 97 25" fill="none" xmlns="http://www.w3.org/2000/svg">
<path d="M28.52 18.108C28.172 18.108 27.89 18.006 27.674 17.802C27.47 17.586 27.368 17.298 27.368 16.938V6.408C27.368 6.06 27.464 5.79 27.656 5.598C27.86 5.406 28.136 5.31 28.484 5.31H32.912C34.268 5.31 35.324 5.652 36.08 6.336C36.836 7.008 37.214 7.956 37.214 9.18C37.214 10.404 36.836 11.358 36.08 12.042C35.324 12.726 34.268 13.068 32.912 13.068H29.69V16.938C29.69 17.298 29.582 17.586 29.366 17.802C29.162 18.006 28.88 18.108 28.52 18.108ZM32.624 11.286C34.22 11.286 35.018 10.59 35.018 9.198C35.018 7.806 34.22 7.11 32.624 7.11H29.69V11.286H32.624ZM42.7504 18.144C41.8504 18.144 41.0584 17.958 40.3744 17.586C39.7024 17.214 39.1804 16.68 38.8084 15.984C38.4364 15.288 38.2504 14.478 38.2504 13.554C38.2504 12.63 38.4364 11.826 38.8084 11.142C39.1804 10.446 39.7024 9.912 40.3744 9.54C41.0584 9.168 41.8504 8.982 42.7504 8.982C43.6504 8.982 44.4364 9.168 45.1084 9.54C45.7924 9.912 46.3144 10.446 46.6744 11.142C47.0464 11.826 47.2324 12.63 47.2324 13.554C47.2324 14.478 47.0464 15.288 46.6744 15.984C46.3144 16.68 45.7924 17.214 45.1084 17.586C44.4364 17.958 43.6504 18.144 42.7504 18.144ZM42.7324 16.398C43.4644 16.398 44.0224 16.158 44.4064 15.678C44.7904 15.198 44.9824 14.49 44.9824 13.554C44.9824 12.63 44.7904 11.928 44.4064 11.448C44.0224 10.956 43.4704 10.71 42.7504 10.71C42.0304 10.71 41.4724 10.956 41.0764 11.448C40.6924 11.928 40.5004 12.63 40.5004 13.554C40.5004 14.49 40.6924 15.198 41.0764 15.678C41.4604 16.158 42.0124 16.398 42.7324 16.398ZM56.9199 16.254C57.1599 16.482 57.2799 16.74 57.2799 17.028C57.2799 17.304 57.1779 17.55 56.9739 17.766C56.7819 17.982 56.5539 18.09 56.2899 18.09C56.0259 18.09 55.7799 17.982 55.5519 17.766L51.3399 13.95V17.028C51.3399 17.376 51.2319 17.64 51.0159 17.82C50.7999 18 50.5299 18.09 50.2059 18.09C49.8819 18.09 49.6119 18 49.3959 17.82C49.1919 17.64 49.0899 17.376 49.0899 17.028V6.282C49.0899 5.934 49.1919 5.67 49.3959 5.49C49.6119 5.31 49.8819 5.22 50.2059 5.22C50.5299 5.22 50.7999 5.31 51.0159 5.49C51.2319 5.67 51.3399 5.934 51.3399 6.282V13.05L55.1919 9.36C55.4079 9.144 55.6539 9.036 55.9299 9.036C56.2059 9.036 56.4459 9.138 56.6499 9.342C56.8539 9.546 56.9559 9.786 56.9559 10.062C56.9559 10.338 56.8419 10.59 56.6139 10.818L53.7879 13.446L56.9199 16.254ZM65.5833 15.588C65.7873 15.588 65.9493 15.666 66.0693 15.822C66.2013 15.978 66.2673 16.188 66.2673 16.452C66.2673 16.824 66.0453 17.136 65.6013 17.388C65.1933 17.616 64.7313 17.802 64.2153 17.946C63.6993 18.078 63.2073 18.144 62.7393 18.144C61.3233 18.144 60.2013 17.736 59.3733 16.92C58.5453 16.104 58.1313 14.988 58.1313 13.572C58.1313 12.672 58.3113 11.874 58.6713 11.178C59.0313 10.482 59.5353 9.942 60.1833 9.558C60.8433 9.174 61.5873 8.982 62.4153 8.982C63.2073 8.982 63.8973 9.156 64.4853 9.504C65.0733 9.852 65.5293 10.344 65.8533 10.98C66.1773 11.616 66.3393 12.366 66.3393 13.23C66.3393 13.746 66.1113 14.004 65.6553 14.004H60.3453C60.4173 14.832 60.6513 15.444 61.0473 15.84C61.4433 16.224 62.0193 16.416 62.7753 16.416C63.1593 16.416 63.4953 16.368 63.7833 16.272C64.0833 16.176 64.4193 16.044 64.7913 15.876C65.1513 15.684 65.4153 15.588 65.5833 15.588ZM62.4693 10.566C61.8573 10.566 61.3653 10.758 60.9933 11.142C60.6333 11.526 60.4173 12.078 60.3453 12.798H64.4133C64.3893 12.066 64.2093 11.514 63.8733 11.142C63.5373 10.758 63.0693 10.566 62.4693 10.566ZM75.5238 5.22C75.8598 5.22 76.1358 5.316 76.3518 5.508C76.5678 5.7 76.6758 5.952 76.6758 6.264V17.028C76.6758 17.352 76.5738 17.61 76.3698 17.802C76.1658 17.994 75.8958 18.09 75.5598 18.09C75.2238 18.09 74.9538 17.994 74.7498 17.802C74.5458 17.61 74.4438 17.352 74.4438 17.028V16.578C74.1798 17.07 73.7958 17.454 73.2918 17.73C72.7998 18.006 72.2358 18.144 71.5998 18.144C70.8438 18.144 70.1658 17.952 69.5658 17.568C68.9778 17.184 68.5158 16.644 68.1798 15.948C67.8558 15.24 67.6938 14.43 67.6938 13.518C67.6938 12.606 67.8558 11.808 68.1798 11.124C68.5158 10.44 68.9778 9.912 69.5658 9.54C70.1538 9.168 70.8318 8.982 71.5998 8.982C72.2358 8.982 72.7998 9.114 73.2918 9.378C73.7838 9.642 74.1618 10.014 74.4258 10.494V6.228C74.4258 5.928 74.5218 5.688 74.7138 5.508C74.9178 5.316 75.1878 5.22 75.5238 5.22ZM72.1938 16.398C72.9138 16.398 73.4658 16.152 73.8498 15.66C74.2458 15.168 74.4438 14.466 74.4438 13.554C74.4438 12.642 74.2458 11.946 73.8498 11.466C73.4658 10.974 72.9198 10.728 72.2118 10.728C71.4918 10.728 70.9338 10.968 70.5378 11.448C70.1418 11.928 69.9438 12.618 69.9438 13.518C69.9438 14.43 70.1418 15.138 70.5378 15.642C70.9338 16.146 71.4858 16.398 72.1938 16.398ZM85.9563 15.588C86.1603 15.588 86.3223 15.666 86.4423 15.822C86.5743 15.978 86.6403 16.188 86.6403 16.452C86.6403 16.824 86.4183 17.136 85.9743 17.388C85.5663 17.616 85.1043 17.802 84.5883 17.946C84.0723 18.078 83.5803 18.144 83.1123 18.144C81.6963 18.144 80.5743 17.736 79.7463 16.92C78.9183 16.104 78.5043 14.988 78.5043 13.572C78.5043 12.672 78.6843 11.874 79.0443 11.178C79.4043 10.482 79.9083 9.942 80.5563 9.558C81.2163 9.174 81.9603 8.982 82.7883 8.982C83.5803 8.982 84.2703 9.156 84.8583 9.504C85.4463 9.852 85.9023 10.344 86.2263 10.98C86.5503 11.616 86.7123 12.366 86.7123 13.23C86.7123 13.746 86.4843 14.004 86.0283 14.004H80.7183C80.7903 14.832 81.0243 15.444 81.4203 15.84C81.8163 16.224 82.3923 16.416 83.1483 16.416C83.5323 16.416 83.8683 16.368 84.1563 16.272C84.4563 16.176 84.7923 16.044 85.1643 15.876C85.5243 15.684 85.7883 15.588 85.9563 15.588ZM82.8423 10.566C82.2303 10.566 81.7383 10.758 81.3663 11.142C81.0063 11.526 80.7903 12.078 80.7183 12.798H84.7863C84.7623 12.066 84.5823 11.514 84.2463 11.142C83.9103 10.758 83.4423 10.566 82.8423 10.566ZM96.009 16.344C96.225 16.56 96.333 16.806 96.333 17.082C96.333 17.346 96.231 17.586 96.027 17.802C95.823 18.006 95.583 18.108 95.307 18.108C95.007 18.108 94.749 17.982 94.533 17.73L91.995 14.922L89.457 17.73C89.229 17.97 88.971 18.09 88.683 18.09C88.419 18.09 88.185 17.988 87.981 17.784C87.777 17.58 87.675 17.346 87.675 17.082C87.675 16.806 87.783 16.56 87.999 16.344L90.627 13.482L88.143 10.782C87.927 10.566 87.819 10.32 87.819 10.044C87.819 9.768 87.921 9.534 88.125 9.342C88.329 9.138 88.563 9.036 88.827 9.036C89.115 9.036 89.373 9.156 89.601 9.396L91.995 12.024L94.389 9.396C94.617 9.156 94.875 9.036 95.163 9.036C95.439 9.036 95.673 9.138 95.865 9.342C96.069 9.534 96.171 9.768 96.171 10.044C96.171 10.32 96.063 10.566 95.847 10.782L93.363 13.482L96.009 16.344Z" fill="#333232"/>
<path d="M10 2C11.3132 2 12.6136 2.25866 13.8268 2.7612C15.0401 3.26375 16.1425 4.00035 17.0711 4.92893C17.9997 5.85752 18.7362 6.95991 19.2388 8.17317C19.7413 9.38642 20 10.6868 20 12C20 14.6522 18.9464 17.1957 17.0711 19.0711C15.1957 20.9464 12.6522 22 10 22C8.68678 22 7.38642 21.7413 6.17317 21.2388C4.95991 20.7362 3.85752 19.9997 2.92893 19.0711C1.05357 17.1957 0 14.6522 0 12C0 9.34784 1.05357 6.8043 2.92893 4.92893C4.8043 3.05357 7.34784 2 10 2V2ZM10 4C5.92 4 2.55 7.05 2.06 11H6.13C6.57 9.27 8.14 8 10 8C11.86 8 13.43 9.27 13.87 11H17.94C17.45 7.05 14.08 4 10 4ZM10 20C14.08 20 17.45 16.95 17.94 13H13.87C13.43 14.73 11.86 16 10 16C8.14 16 6.57 14.73 6.13 13H2.06C2.55 16.95 5.92 20 10 20ZM10 10C9.46957 10 8.96086 10.2107 8.58579 10.5858C8.21071 10.9609 8 11.4696 8 12C8 12.5304 8.21071 13.0391 8.58579 13.4142C8.96086 13.7893 9.46957 14 10 14C10.5304 14 11.0391 13.7893 11.4142 13.4142C11.7893 13.0391 12 12.5304 12 12C12 11.4696 11.7893 10.9609 11.4142 10.5858C11.0391 10.2107 10.5304 10 10 10Z" fill="#E62024"/>
</svg>
